<svg viewBox="0 0 313 277" xmlns="http://www.w3.org/2000/svg" fill-rule="evenodd" clip-rule="evenodd" stroke-linejoin="round" stroke-miterlimit="2"><path d="M85.066 0h-4.237C54.697 1.42 29.271 17.038 13.733 40.464-.393 62.472-3.924 88.738 4.551 111.455c9.888 26.976 34.608 51.113 56.502 72.41l14.126 14.198c15.538 15.618 31.076 30.526 45.908 44.724 8.475 7.809 16.95 16.328 25.425 24.847l9.182 9.228 9.888-8.518c28.251-24.137 56.502-51.114 84.047-80.22 2.825-2.839 5.65-6.389 9.181-9.228 20.482-21.297 46.614-47.564 52.265-79.51 4.237-26.266-2.119-51.822-17.657-70.28-14.832-17.748-36.727-27.686-60.74-27.686h-3.531c-38.139 1.42-60.74 20.587-74.159 37.625C142.275 21.297 118.968 0 85.066 0z" fill="red"/></svg>