<svg viewBox="0 0 330 294" xmlns="http://www.w3.org/2000/svg" fill-rule="evenodd" clip-rule="evenodd" stroke-linejoin="round" stroke-miterlimit="1.414"><path d="M93.4 8.333h-4.238C63.03 9.753 37.604 25.371 22.066 48.798 7.94 70.805 4.409 97.071 12.884 119.788c9.888 26.977 34.608 51.113 56.502 72.41a135073 135073 0 0014.126 14.198c15.538 15.618 31.076 30.526 45.908 44.724 8.475 7.809 16.95 16.328 25.426 24.847l9.181 9.229 9.888-8.519c28.251-24.137 56.502-51.113 84.047-80.219 2.825-2.84 5.65-6.389 9.182-9.229 20.482-21.297 46.614-47.564 52.264-79.509 4.238-26.267-2.119-51.823-17.657-70.281-14.832-17.747-36.726-27.686-60.74-27.686h-3.531c-38.139 1.42-60.74 20.587-74.159 37.625C150.608 29.63 127.301 8.333 93.4 8.333z" fill="none" stroke="red" stroke-width="16.67"/></svg>